<?xml version="1.0" encoding="UTF-8" standalone="no"?>
<svg xmlns="http://www.w3.org/2000/svg" viewBox="0 0 240 80" width="240" height="80">
  <!-- Background shape -->
  <rect x="0" y="0" width="240" height="80" rx="12" fill="#2c4985" />
  
  <!-- Circle element -->
  <circle cx="40" cy="40" r="25" fill="#ffffff" />
  
  <!-- Location pin element -->
  <path d="M40,20 C29,20 20,29 20,40 C20,51 40,70 40,70 C40,70 60,51 60,40 C60,29 51,20 40,20 Z" fill="#4f76c7" stroke="#ffffff" stroke-width="1.5" />
  <circle cx="40" cy="38" r="8" fill="#ffffff" />
  
  <!-- Text "KPTC" -->
  <text x="80" y="50" font-family="Arial, sans-serif" font-size="36" font-weight="bold" fill="#ffffff">KPTC</text>
  
  <!-- Decorative elements -->
  <path d="M210,25 L225,25 L225,30 L210,30 Z" fill="#38a3b8" />
  <path d="M210,40 L230,40 L230,45 L210,45 Z" fill="#38a3b8" />
  <path d="M210,55 L220,55 L220,60 L210,60 Z" fill="#38a3b8" />
</svg> 